# xmcd
# 
# Track frame offsets:
#     150
#     51932
#     102989
#     155207
#     192777
#     225657
#     273428
# 
# Disc length: 4391
# 
# Revision: 0
# Processed by: cddbd v1.5.2PL0 Copyright (c) Steve Scherf et al.
# Submitted via: BonkEnc v1.0.15
# 
DISCID=5d112507
DTITLE=Marie Hamsun - Fritzi Haberlandt - Die Langerudkinder CD 1
DYEAR=2008
DGENRE=Hörbuch
TTITLE0=Weit oben im Tal
TTITLE1=Es war der 17. Mai
TTITLE2=Ola war gern allein
TTITLE3=Ingerid and Martha hatten jede ihre Puppe
TTITLE4=Und nun kamen Ingerid and Martha herbeigelaufen
TTITLE5=Es war in den letzten Tagen des Mai
TTITLE6=Eines Tages gab es Lungenmus
EXTD=
EXTT0=
EXTT1=
EXTT2=
EXTT3=
EXTT4=
EXTT5=
EXTT6=
PLAYORDER=
